<?xml version="1.0" standalone="no"?>
<!DOCTYPE svg PUBLIC "-//W3C//DTD SVG 20010904//EN"
 "http://www.w3.org/TR/2001/REC-SVG-20010904/DTD/svg10.dtd">
<svg version="1.0" xmlns="http://www.w3.org/2000/svg"
 width="914.000000pt" height="914.000000pt" viewBox="0 0 914.000000 914.000000"
 preserveAspectRatio="xMidYMid meet">
<metadata>
Created by potrace 1.14, written by Peter Selinger 2001-2017
</metadata>
<g transform="translate(0.000000,914.000000) scale(0.100000,-0.100000)"
fill="#000000" stroke="none">
<path d="M4240 8645 c0 -323 -3 -495 -10 -495 -17 0 -19 0 -60 -15 -22 -8 -44
-14 -48 -15 -28 -1 -171 -64 -247 -108 -78 -45 -221 -172 -274 -242 -14 -19
-29 -37 -32 -40 -15 -12 -90 -143 -117 -206 -68 -157 -90 -276 -86 -449 1 -66
5 -133 8 -150 58 -349 274 -639 591 -798 39 -19 89 -40 112 -47 48 -15 48 -20
16 -90 -12 -25 -64 -144 -116 -265 -52 -121 -111 -256 -130 -300 -19 -44 -72
-165 -117 -270 -45 -104 -90 -208 -100 -230 -10 -22 -39 -89 -65 -150 -26 -60
-58 -132 -70 -160 -12 -27 -30 -68 -39 -90 -10 -22 -92 -213 -184 -424 l-167
-385 -465 0 -465 -1 0 -100 0 -100 320 -2 c176 -1 361 -2 412 -2 l92 -1 -28
-62 c-16 -35 -38 -83 -49 -108 -11 -25 -78 -173 -148 -330 -69 -157 -135 -303
-145 -325 -10 -22 -54 -121 -97 -220 -44 -99 -91 -205 -105 -235 -14 -30 -48
-109 -77 -175 -72 -166 -75 -174 -98 -225 -85 -191 -95 -224 -96 -300 -2 -119
45 -191 181 -280 l72 -46 -53 -160 c-74 -219 -304 -916 -326 -987 l-18 -57 29
0 c27 0 33 6 60 67 16 37 36 81 44 97 8 17 81 182 163 366 82 184 160 358 172
385 13 28 33 73 45 100 13 28 61 136 108 240 46 105 97 217 112 250 15 33 33
74 41 90 49 111 369 828 384 860 10 22 66 148 125 280 59 132 119 267 134 300
16 33 67 148 115 255 47 107 90 201 94 208 6 9 79 12 313 13 167 0 309 0 316
0 9 -1 12 -36 11 -134 0 -73 2 -142 6 -153 8 -27 68 -54 128 -58 52 -3 145 23
159 45 5 8 9 78 9 157 l0 142 58 1 c51 0 331 0 515 -1 61 0 68 -2 76 -22 5
-13 23 -53 40 -91 17 -37 31 -69 31 -72 0 -2 15 -37 34 -77 19 -40 103 -226
187 -413 83 -187 163 -365 176 -395 14 -30 42 -93 63 -140 21 -47 65 -146 98
-220 57 -129 197 -439 228 -507 18 -39 82 -182 188 -423 43 -96 88 -198 101
-225 13 -28 72 -158 130 -290 59 -132 123 -273 141 -313 19 -41 34 -75 34 -77
0 -2 16 -38 36 -82 80 -173 73 -163 106 -163 25 0 29 3 23 18 -7 17 -35 103
-258 777 -69 209 -128 387 -132 396 -4 12 11 26 61 55 91 53 158 128 179 201
26 89 17 142 -50 298 -8 17 -44 100 -80 185 -73 169 -85 196 -139 313 -20 44
-36 81 -36 83 0 2 -13 32 -29 66 -15 35 -40 89 -55 121 -14 32 -26 59 -26 62
0 2 -13 32 -29 67 -43 94 -228 507 -274 612 -12 27 -43 95 -68 150 -26 56 -45
102 -44 104 2 2 187 4 412 5 l408 2 1 97 c2 83 -1 98 -15 102 -9 2 -216 3
-459 2 -244 0 -447 1 -452 4 -9 6 -29 49 -111 240 -34 80 -65 149 -70 155 -5
5 -9 15 -9 21 0 7 -13 41 -29 76 -27 59 -67 151 -178 408 -25 58 -53 123 -63
145 -10 22 -54 123 -98 225 -137 319 -183 424 -192 441 -4 9 -24 55 -44 103
-20 47 -45 105 -56 129 -70 152 -169 391 -164 398 3 5 11 9 19 9 21 0 148 57
217 97 272 158 475 458 519 767 78 555 -273 1075 -817 1207 l-50 12 0 491 0
491 -197 3 -197 2 0 -495z m350 -873 c102 -27 194 -68 234 -104 11 -10 23 -18
28 -18 14 0 122 -112 157 -163 36 -53 87 -158 95 -197 3 -14 10 -45 15 -70 15
-68 13 -207 -4 -275 -9 -33 -17 -67 -19 -77 -8 -32 -67 -141 -100 -187 -74
-100 -186 -186 -306 -234 -89 -35 -109 -39 -235 -43 -166 -5 -294 34 -429 130
-110 79 -214 220 -247 336 -7 25 -14 50 -15 55 -20 63 -26 236 -11 301 66 281
257 479 526 543 81 20 243 21 311 3z m-31 -2755 c69 -160 135 -314 147 -342
12 -27 57 -130 99 -229 42 -98 82 -192 90 -210 7 -17 20 -47 28 -66 8 -19 26
-60 39 -90 14 -30 44 -102 69 -160 24 -58 53 -125 65 -150 12 -25 20 -47 18
-49 -5 -5 -494 -8 -517 -3 -15 4 -17 19 -16 158 0 89 -4 161 -10 173 -16 30
-74 44 -160 39 -82 -5 -119 -21 -127 -55 -3 -11 -6 -88 -7 -169 l-2 -148 -263
0 c-168 -1 -262 3 -262 9 0 14 674 1584 680 1585 3 0 61 -132 129 -293z"/>
</g>
</svg>
